<svg xmlns="http://www.w3.org/2000/svg" width="204.221" height="34"><g data-name="Group 12330"><path data-name="Path 42893" d="m187.69 18.223-2.153 2.69-9.172-11.455h4.311Z" fill="#49089e"/><path data-name="Path 42894" d="m187.69 24.499-7.015 8.765h-4.311l9.172-11.455Z" fill="#49089e"/><path data-name="Path 42895" d="M204.22 33.263h-4.311l-7.015-8.765 2.153-2.695Z" fill="#49089e"/><path data-name="Path 42896" d="m192.445 21.356-2.153 2.695-2.153-2.69 2.153-2.686Z" fill="#ff7b09"/><path data-name="Path 42897" d="m170.799 2.686-2.153 2.695-2.153-2.69 2.153-2.686Z" fill="#ff7b09"/><path data-name="Path 42898" d="m204.22 9.458-9.172 11.451-2.153-2.686 7.015-8.765Z" fill="#49089e"/><path data-name="Path 42899" d="M0 31.315 1.7 28.8a15.252 15.252 0 0 0 8.27 2.345c4.263 0 6.223-.81 6.223-4.135 0-2.643-1.7-3.155-6.223-4.049-5.456-1.066-8.867-2-8.867-7.076 0-4.05 2.387-6.436 8.867-6.436a16.91 16.91 0 0 1 8.61 2.046l-1.534 2.643a14.628 14.628 0 0 0-7.033-1.705c-4.434 0-5.712 1.321-5.712 3.453 0 2.6 1.7 3.24 5.84 4.05 5.712 1.151 9.165 1.918 9.165 6.948 0 5.371-2.984 7.076-9.506 7.076A17.573 17.573 0 0 1 0 31.315Z" fill="#49089e"/><path data-name="Path 42900" d="M22.932 21.724c0-6.821 2.046-12.277 11.168-12.277 9.463 0 9.762 6.522 9.677 13.385H26.044c.17 4.945 1.62 8.355 8.184 8.355a11.236 11.236 0 0 0 7.588-2.387l1.748 2.257a14.115 14.115 0 0 1-9.335 2.942c-9.464.001-11.297-5.413-11.297-12.275Zm3.155-1.833h14.624c-.213-4.178-.512-7.545-6.692-7.545-5.929 0-7.592 3.026-7.932 7.545Z" fill="#49089e"/><path data-name="Path 42901" d="M47.91 21.724c0-7.46 2.472-12.277 11.339-12.277 4.22 0 6.777 1.534 8.483 3.367l-2.345 2.216a8.185 8.185 0 0 0-6.138-2.472c-6.181 0-8.1 3.368-8.1 9.25 0 5.8 1.833 9.25 8.1 9.25a8.68 8.68 0 0 0 6.309-2.472l2.174 2.046a11.455 11.455 0 0 1-8.568 3.325c-8.782 0-11.254-4.774-11.254-12.233Z" fill="#49089e"/><path data-name="Path 42902" d="M72.633 23.855V10.001h3.2V23.94c0 3.879 0 7.076 6.863 7.076 6.82 0 6.735-3.2 6.735-7.247V10.001h3.155v13.726c0 6.394-.81 10.231-9.889 10.231-9.126 0-10.064-3.837-10.064-10.103Z" fill="#49089e"/><path data-name="Path 42903" d="m98.932 10.171 2.558-.17.341 3.154c.9-1.832 3.794-3.41 8.142-3.453v3.24c-5.755 0-7.8 3.282-7.8 7.886v12.7h-3.24Z" fill="#49089e"/><path data-name="Path 42904" d="M112.36 21.724c0-8.1 3.2-12.277 11.339-12.277s11.381 4.177 11.381 12.277-3.24 12.277-11.381 12.277-11.339-4.178-11.339-12.277Zm19.438.085c0-6.053-2.174-9.293-8.1-9.293s-8.1 3.24-8.1 9.293c0 6.011 2.174 9.25 8.1 9.25s8.099-3.24 8.099-9.25Z" fill="#49089e"/><path data-name="Path 42905" d="m140.402 10.171 2.558-.17.3 2.472c1.023-1.62 3.282-3.026 8.738-3.026 7.588 0 8.483 3.922 8.483 9.719v14.366h-3.24V19.72c0-4.177-.384-7.076-6.181-7.076-6.266 0-7.417 3.24-7.417 7.673v13.215h-3.241Z" fill="#49089e"/><path data-name="Path 42906" d="M167.047 10.001h3.2v23.53h-3.2Z" fill="#49089e"/></g></svg>